.
..............................Site Info...........................

 -   http://www.scenetime.com  *_*   


Scenetime .Always on time . friendly online private torrent community ..

     We care to share . Join us on  http://www.scenetime.com 

    Be the first to get new release at  http://www.scenetime.com

        Seed back for speed


...................................NFO:.................................................[IMG]http://lookpic.com/O/i2/590/TAOf6V9f.jpeg[/IMG]

MaryJane Presents

General
Complete name : Fortress (1992) MaryJane.avi
Format : AVI
Format/Info : Audio Video Interleave
Format profile : OpenDML
File size : 1.28 GiB
Duration : 1h 31mn
Overall bit rate : 1 995 Kbps
Writing application : MEncoder version 4.4.0 building on 20110102


Video
ID : 0
Format : MPEG-4 Visual
Format profile : Advanced Simple@L5
Format settings, BVOP : 2
Format settings, QPel : No
Format settings, GMC : No warppoints
Format settings, Matrix : Default (H.263)
Codec ID : XVID
Codec ID/Hint : XviD
Duration : 1h 31mn
Bit rate : 1 796 Kbps
Width : 720 pixels
Height : 404 pixels
Display aspect ratio : 16:9
Original display aspect ratio : 16:9
Frame rate : 29.970 fps
Color space : YUV
Chroma subsampling : 4:2:0
Bit depth : 8 bits
Scan type : Progressive
Compression mode : Lossy
Bits/(Pixel*Frame) : 0.206
Stream size : 1.15 GiB (90%)
Writing library : XviD 1.2.1 (UTC 2008-12-04)

Audio
ID : 1
Format : AC-3
Format/Info : Audio Coding 3
Format profile : Dolby Digital
Mode extension : CM (complete main)
Format settings, Endianness : Big
Codec ID : 2000
Duration : 1h 31mn
Bit rate mode : Constant
Bit rate : 192 Kbps
Channel(s) : 2 channels
Channel positions : Front: L R
Sampling rate : 48.0 KHz
Bit depth : 16 bits
Compression mode : Lossy
Delay relative to video : 33ms
Stream size : 126 MiB (10%)
Alignment : Split accross interleaves
Interleave, duration : 500 ms (14.99 video frames)
Interleave, preload duration : 500 ms 
http://www.imdb.com/title/tt0106950/

Fortress Poster 	
SEE RANK
Fortress (1992)
18 95 min  -  Action | Sci-Fi | Thriller  -   8 July 1994 (UK)
5.7


A futuristic prison movie. Protagonist and wife are nabbed at a future US emigration point with an illegal baby during population control... See full summary 

Director : Stuart Gordon
Writers : Troy Neighbors (story), Steven Feinberg (story)
Stars : Christopher Lambert, Loryn Locklin and Kurtwood Smith 

[IMG]http://lookpic.com/O/i2/35/JmHrN0EN.png[/IMG]
[IMG]http://lookpic.com/O/i2/1462/uKSVGlBq.png[/IMG]
[IMG]http://lookpic.com/O/i2/635/1m8Mp3VQ.png[/IMG]
[IMG]http://lookpic.com/O/i2/436/ume0YLL.png[/IMG]